<?xml version="1.0" encoding="UTF-8" standalone="no"?>
<svg
   version="1.1"
   id="Layer_1"
   x="0px"
   y="0px"
   width="100%"
   viewBox="0 0 400 400"
   enable-background="new 0 0 400 400"
   xml:space="preserve"
   sodipodi:docname="file (1).svg"
   inkscape:version="1.4.3 (0d15f75042, 2025-12-25)"
   xmlns:inkscape="http://www.inkscape.org/namespaces/inkscape"
   xmlns:sodipodi="http://sodipodi.sourceforge.net/DTD/sodipodi-0.dtd"
   xmlns="http://www.w3.org/2000/svg"
   xmlns:svg="http://www.w3.org/2000/svg"><defs
   id="defs14" /><sodipodi:namedview
   id="namedview14"
   pagecolor="#505050"
   bordercolor="#ffffff"
   borderopacity="1"
   inkscape:showpageshadow="0"
   inkscape:pageopacity="0"
   inkscape:pagecheckerboard="1"
   inkscape:deskcolor="#505050"
   inkscape:zoom="2.0523774"
   inkscape:cx="322.79638"
   inkscape:cy="169.80308"
   inkscape:window-width="2560"
   inkscape:window-height="1370"
   inkscape:window-x="0"
   inkscape:window-y="0"
   inkscape:window-maximized="1"
   inkscape:current-layer="Layer_1" />

<path
   fill="#2bf8a5"
   opacity="1"
   stroke="none"
   d="M 1.5839949,192.07469 C 16.90728,165.45364 32.040888,139.28155 47.023178,113.02309 59.822911,90.58985 72.447666,68.056778 85.152592,45.569425 c 3.819218,-6.759902 7.161419,-13.86797 11.696519,-20.108458 1.985907,-2.732695 6.409969,-5.208937 9.739539,-5.225299 62.45007,-0.3067 124.90215,-0.181057 187.35345,-0.309487 5.13184,-0.01058 8.29647,2.057983 10.68328,6.277178 9.21718,16.293636 18.50341,32.548234 27.77206,48.812724 13.20425,23.170571 26.42031,46.334437 39.62238,69.506237 8.52722,14.96664 17.01799,29.9541 25.5673,44.90808 3.24184,5.67032 2.9969,11.1444 -0.24793,16.76131 -15.01622,25.99375 -30.02182,51.99406 -44.90038,78.06676 -12.91225,22.62696 -25.63284,45.36325 -38.4751,68.03025 -3.20148,5.65079 -5.99585,11.66581 -10.03635,16.65595 -2.30916,2.85182 -6.74568,5.61386 -10.23877,5.63193 -62.87153,0.32511 -125.74563,0.29983 -188.61738,-0.0143 -3.0377,-0.0152 -7.353756,-2.62655 -8.890275,-5.28934 C 77.68775,337.22445 59.673692,304.90001 41.39583,272.72647 28.63616,250.26631 15.679444,227.91794 2.7694637,205.54345 0.35567023,201.36007 -1.3920724,197.19337 1.5839949,192.07465 m 28.5333091,37.42937 c -0.309214,0.0167 -0.618431,0.0334 -0.927646,0.0502 0.200978,0.4141 0.401963,0.82817 0.700805,2.15253 0.408047,0.96328 0.725791,1.97755 1.237151,2.88242 20.543491,36.35249 41.092426,72.70188 61.677692,109.03074 2.722303,4.80432 5.640932,9.49737 8.870804,14.91675 6.44813,-10.34199 12.66974,-19.5418 17.88807,-29.27926 1.19169,-2.22369 -0.0341,-7.23719 -1.93729,-9.36732 C 109.25568,310.52071 100.2082,301.75723 91.443529,292.73756 71.143807,271.84722 50.865915,250.93564 30.117304,229.50411 m -8.016147,-49.52818 c 10.955778,-10.35713 21.949766,-20.67421 32.859138,-31.08 20.832386,-19.87071 41.525358,-39.88898 62.504085,-59.603504 3.81475,-3.584858 5.07259,-6.758689 2.76986,-11.548911 -4.45616,-9.269838 -8.57837,-18.69981 -12.99805,-27.987733 -1.80201,-3.786931 -4.018,-7.376865 -6.47353,-11.832961 -3.981633,6.991814 -7.307519,12.822449 -10.624341,18.65822 -12.553433,22.08719 -25.135195,44.158359 -37.646021,66.269669 -10.642381,18.809 -21.20177,37.665 -32.116797,56.88624 0.08162,0.30133 0.163218,0.60261 0.244826,0.90393 0.200503,-0.22494 0.401005,-0.44988 1.48083,-0.66495 m 264.772463,48.52181 c 11.2427,-6.32922 22.4854,-12.65842 34.64606,-19.5044 C 258.93876,170.58062 197.37883,132.79466 134.8975,94.443105 c 0,74.131555 0,146.721285 0,219.871025 1.71717,-0.62655 2.92843,-0.88816 3.95795,-1.47085 18.09218,-10.24031 36.17455,-20.49823 54.23419,-30.7958 31.00195,-17.6771 61.98672,-35.38434 93.78398,-53.54979 M 241.35341,53.775511 c -33.16608,10.739948 -66.33215,21.479897 -100.47115,32.534902 61.36758,37.678197 121.72126,74.733867 183.00219,112.358837 -0.28766,-2.93597 -0.33653,-4.5941 -0.62539,-6.20934 -4.5197,-25.27246 -9.07672,-50.53823 -13.61208,-75.8079 -4.42594,-24.659737 -8.97994,-49.29802 -13.14799,-74.001364 -0.96527,-5.721129 -3.21503,-6.122589 -8.08931,-4.435254 -15.28884,5.29258 -30.71135,10.198978 -47.05627,15.560119 M 122.9976,121.05607 c 0,-7.26176 0,-14.52354 0,-23.616456 C 86.695146,132.29394 51.783574,165.81285 16.223043,199.95484 c 35.42579,36.71701 70.409131,72.97543 105.392457,109.23386 0.46074,-0.31361 0.92144,-0.62723 1.38218,-0.94088 0,-61.9756 0,-123.95121 -8e-5,-187.19175 m 158.54019,122.26138 c -6.95838,3.90749 -13.9342,7.78434 -20.87222,11.72771 -31.75254,18.04725 -63.50722,36.09084 -95.23056,54.18928 -7.1966,4.10572 -14.27146,8.42477 -22.78021,13.46121 8.51369,1.98956 15.4518,3.53334 22.35077,5.23582 39.77406,9.81491 79.57109,19.54082 119.27043,29.65 5.64773,1.43814 7.81783,-0.41422 8.94885,-5.2849 2.56601,-11.05096 5.09186,-22.11125 7.66737,-33.15997 5.58219,-23.94755 11.24348,-47.87676 16.74897,-71.84186 1.98846,-8.65559 3.62373,-17.39233 5.73675,-27.625 -14.73134,8.35688 -27.86322,15.80639 -41.84015,23.64771 M 185.41913,61.229158 c 30.04362,-9.723699 60.08722,-19.447406 90.1308,-29.171105 -0.1396,-0.395782 -0.27919,-0.791553 -0.41882,-1.187335 -54.95695,0 -109.91391,0 -165.21438,0 0.25982,1.163643 0.30435,2.013251 0.632,2.734175 6.08881,13.396932 12.29929,26.739443 18.27693,40.185526 1.97615,4.445094 5.43138,4.466588 8.96008,3.3227 15.60137,-5.05738 31.12448,-10.356113 47.63339,-15.883961 M 365.61642,197.40386 c 6.7944,-1.81988 13.58879,-3.63977 21.16847,-5.67 -25.37441,-44.80243 -50.42478,-89.03288 -75.47519,-133.263321 -1.3037,1.542648 -1.43328,2.398959 -1.28493,3.204091 4.5327,24.605866 9.21357,49.18512 13.61038,73.8151 3.58643,20.09078 6.87787,40.23472 10.21751,60.36881 1.20372,7.25726 2.38824,7.84611 9.66994,5.98946 6.92639,-1.76607 14.01513,-2.89546 22.09382,-4.44414 m -28.033,93.13773 c 16.44137,-29.05596 32.88271,-58.11192 50.12718,-88.58716 -16.93599,3.63026 -32.18601,6.63246 -47.24925,10.38475 -2.57479,0.6414 -5.64468,4.17652 -6.30132,6.90127 -9.15698,37.99526 -17.94067,76.0805 -26.79264,114.14918 -0.99035,4.25901 -1.84185,8.5504 -2.75771,12.82675 0.37409,0.10753 0.74816,0.21491 1.12225,0.32239 10.49253,-18.38062 20.98506,-36.7612 31.85149,-55.99718 m -207.63202,41.4731 c -6.39719,10.67392 -12.79438,21.34787 -19.41758,32.39887 52.34755,0 103.68803,0 155.0285,0 -16.2937,-5.20515 -32.70191,-9.44049 -49.12299,-13.62532 -21.98754,-5.60335 -43.94418,-11.33747 -66.00391,-16.64195 -6.38501,-1.53539 -13.0781,-1.78955 -20.48402,-2.1316 z"
   id="path2"
   style="stroke-width:1.26592" />
<path
   fill="#131c2b"
   opacity="1"
   stroke="none"
   d="m 286.47094,228.73311 c -31.39458,17.93003 -62.37935,35.63727 -93.3813,53.31437 -18.05964,10.29757 -36.14201,20.55549 -54.23419,30.7958 -1.02952,0.58269 -2.24078,0.8443 -3.95795,1.47085 0,-73.14974 0,-145.73947 0,-219.871025 62.48133,38.351555 124.04126,76.137515 186.62218,114.550185 -12.16066,6.84598 -23.40336,13.17518 -35.04874,19.73982 z"
   id="path3"
   style="stroke-width:1.26592" />
<path
   fill="#131b2b"
   opacity="1"
   stroke="none"
   d="m 241.84048,53.62294 c 15.85785,-5.20857 31.28036,-10.114968 46.5692,-15.407548 4.87428,-1.687335 7.12404,-1.285875 8.08931,4.435254 4.16805,24.703344 8.72205,49.341627 13.14799,74.001364 4.53536,25.26967 9.09238,50.53544 13.61208,75.8079 0.28886,1.61524 0.33773,3.27337 0.62539,6.20934 C 262.60352,161.04428 202.24984,123.98861 140.88226,86.310413 175.02126,75.255408 208.18733,64.515459 241.84048,53.62294 Z"
   id="path4"
   style="stroke-width:1.26592" />
<path
   fill="#131b2b"
   opacity="1"
   stroke="none"
   d="m 122.99765,121.68853 c 3e-5,62.60808 3e-5,124.58369 3e-5,186.55929 -0.46074,0.31365 -0.92144,0.62727 -1.38218,0.94088 C 86.632174,272.93027 51.648833,236.67185 16.223043,199.95484 51.783574,165.81285 86.695146,132.29394 122.9976,97.439614 c 0,9.092916 0,16.354696 5e-5,24.248916 z"
   id="path5"
   style="stroke-width:1.26592" />
<path
   fill="#131c2b"
   opacity="1"
   stroke="none"
   d="m 281.96032,243.12157 c 13.5544,-7.64544 26.68628,-15.09495 41.41762,-23.45183 -2.11302,10.23267 -3.74829,18.96941 -5.73675,27.625 -5.50549,23.9651 -11.16678,47.89431 -16.74897,71.84186 -2.57551,11.04872 -5.10136,22.10901 -7.66737,33.15997 -1.13102,4.87068 -3.30112,6.72304 -8.94885,5.2849 -39.69934,-10.10918 -79.49637,-19.83509 -119.27043,-29.65 -6.89897,-1.70248 -13.83708,-3.24626 -22.35077,-5.23582 8.50875,-5.03644 15.58361,-9.35549 22.78021,-13.46121 31.72334,-18.09844 63.47802,-36.14203 95.23056,-54.18928 6.93802,-3.94337 13.91384,-7.82022 21.29475,-11.92359 z"
   id="path6"
   style="stroke-width:1.26592" />
<path
   fill="#131c2b"
   opacity="1"
   stroke="none"
   d="m 184.94041,61.387406 c -16.03019,5.3696 -31.5533,10.668333 -47.15467,15.725713 -3.5287,1.143888 -6.98393,1.122394 -8.96008,-3.3227 -5.97764,-13.446083 -12.18812,-26.788594 -18.27693,-40.185526 -0.32765,-0.720924 -0.37218,-1.570532 -0.632,-2.734175 55.30047,0 110.25743,0 165.21438,0 0.13963,0.395782 0.27922,0.791553 0.41882,1.187335 -30.04358,9.723699 -60.08718,19.447406 -90.60952,29.329353 z"
   id="path7"
   style="stroke-width:1.26592" />
<path
   fill="#131d2c"
   opacity="1"
   stroke="none"
   d="m 365.08577,197.47355 c -7.54804,1.47899 -14.63678,2.60838 -21.56317,4.37445 -7.2817,1.85665 -8.46622,1.2678 -9.66994,-5.98946 -3.33964,-20.13409 -6.63108,-40.27803 -10.21751,-60.36881 -4.39681,-24.62998 -9.07768,-49.209234 -13.61038,-73.8151 -0.14835,-0.805132 -0.0189,-1.661443 1.28493,-3.204091 25.05041,44.230441 50.10078,88.460891 75.47519,133.263321 -7.57968,2.03023 -14.37407,3.85012 -21.69912,5.73969 z"
   id="path8"
   style="stroke-width:1.26592" />
<path
   fill="#131d2c"
   opacity="1"
   stroke="none"
   d="m 20.694432,179.35086 c 10.596096,-18.8352 21.155485,-37.6912 31.797866,-56.5002 12.510826,-22.11131 25.092588,-44.182479 37.646021,-66.269669 3.316822,-5.835772 6.642708,-11.666407 10.624341,-18.65822 2.45553,4.456096 4.67152,8.046029 6.47353,11.832961 4.41968,9.287923 8.54189,18.717895 12.99805,27.987732 2.30273,4.790222 1.04489,7.964053 -2.76986,11.548911 -20.978727,19.714525 -41.671699,39.732795 -62.504085,59.603505 -10.909372,10.40579 -21.90336,20.72287 -33.429964,30.92069 -0.570822,-0.15931 -0.835893,-0.46571 -0.835899,-0.46571 z"
   id="path9"
   style="stroke-width:1.26592" />
<path
   fill="#131d2c"
   opacity="1"
   stroke="none"
   d="m 337.39647,290.96929 c -10.67948,18.80828 -21.17201,37.18886 -31.66454,55.56948 -0.37409,-0.10752 -0.74816,-0.21491 -1.12225,-0.32239 0.91586,-4.27635 1.76736,-8.56774 2.75771,-12.82675 8.85197,-38.06868 17.63566,-76.15392 26.79264,-114.14918 0.65664,-2.72475 3.72653,-6.25987 6.30132,-6.90127 15.06324,-3.75229 30.31326,-6.75449 47.24925,-10.38475 -17.24447,30.47524 -33.68581,59.5312 -50.31413,89.01486 z"
   id="path10"
   style="stroke-width:1.26592" />
<path
   fill="#131c2b"
   opacity="1"
   stroke="none"
   d="m 130.37842,331.76493 c 6.9789,0.59181 13.67199,0.84597 20.057,2.38136 22.05973,5.30448 44.01637,11.0386 66.00391,16.64195 16.42108,4.18483 32.82929,8.42017 49.12299,13.62532 -51.34047,0 -102.68095,0 -155.0285,0 6.6232,-11.051 13.02039,-21.72495 19.8446,-32.64863 z"
   id="path11"
   style="stroke-width:1.26592" />
<path
   fill="#131e2c"
   opacity="1"
   stroke="none"
   d="m 30.579177,230.03264 c 20.286738,20.90295 40.56463,41.81453 60.864352,62.70492 8.764671,9.01966 17.812151,17.78315 26.183361,27.15249 1.90321,2.13013 3.12898,7.14362 1.93729,9.36732 -5.21833,9.73745 -11.43994,18.93727 -17.88807,29.27926 C 98.446238,353.11725 95.527609,348.4242 92.805306,343.61988 72.22004,307.29102 51.671105,270.94162 31.127614,234.58914 c -0.51136,-0.90488 -0.829104,-1.91914 -1.088937,-3.52799 0.148205,-0.64559 0.5405,-1.02851 0.5405,-1.02851 z"
   id="path12"
   style="stroke-width:1.26592" />
<path
   fill="#131d2c"
   opacity="1"
   stroke="none"
   d="m 21.090672,179.81163 c -0.06934,0.37932 -0.269842,0.60426 -0.470345,0.8292 -0.08161,-0.30132 -0.163214,-0.6026 -0.08536,-1.09693 0.159466,-0.19304 0.424538,0.11336 0.555701,0.26773 z"
   id="path13"
   style="stroke-width:1.26592" />
<path
   fill="#131e2c"
   opacity="1"
   stroke="none"
   d="m 29.989741,230.606 c -0.39812,-0.22364 -0.599105,-0.63772 -0.800083,-1.05184 0.309215,-0.0166 0.618432,-0.0334 1.158582,0.21419 0.230937,0.26429 -0.161358,0.64721 -0.358499,0.83765 z"
   id="path14"
   style="stroke-width:1.26592" />
</svg>
